<mxfile host="app.diagrams.net" agent="Mozilla/5.0 (Windows NT 10.0; Win64; x64) AppleWebKit/537.36 (KHTML, like Gecko) Chrome/129.0.0.0 Safari/537.36" version="24.8.2">
  <diagram name="Page-1" id="xlMZWrDoKpGhfqH5Mmrt">
    <mxGraphModel dx="2465" dy="2105" grid="1" gridSize="10" guides="1" tooltips="1" connect="1" arrows="1" fold="1" page="1" pageScale="1" pageWidth="850" pageHeight="1100" math="0" shadow="0">
      <root>
        <mxCell id="0" />
        <mxCell id="1" parent="0" />
        <mxCell id="YoX6VDQHQ6fOQGBJkhDj-1" value="" style="endArrow=none;html=1;rounded=0;" parent="1" source="YoX6VDQHQ6fOQGBJkhDj-5" edge="1">
          <mxGeometry width="50" height="50" relative="1" as="geometry">
            <mxPoint y="70" as="sourcePoint" />
            <mxPoint x="850" y="70" as="targetPoint" />
          </mxGeometry>
        </mxCell>
        <mxCell id="YoX6VDQHQ6fOQGBJkhDj-2" value="" style="endArrow=none;html=1;rounded=0;" parent="1" edge="1">
          <mxGeometry width="50" height="50" relative="1" as="geometry">
            <mxPoint x="850" y="610" as="sourcePoint" />
            <mxPoint x="850" y="-3.20001220703125" as="targetPoint" />
          </mxGeometry>
        </mxCell>
        <mxCell id="YoX6VDQHQ6fOQGBJkhDj-3" value="" style="endArrow=none;html=1;rounded=0;exitX=0.071;exitY=1.013;exitDx=0;exitDy=0;exitPerimeter=0;" parent="1" source="YoX6VDQHQ6fOQGBJkhDj-5" target="YoX6VDQHQ6fOQGBJkhDj-4" edge="1">
          <mxGeometry width="50" height="50" relative="1" as="geometry">
            <mxPoint x="680" y="590" as="sourcePoint" />
            <mxPoint x="680" as="targetPoint" />
          </mxGeometry>
        </mxCell>
        <mxCell id="YoX6VDQHQ6fOQGBJkhDj-4" value="Text" style="text;html=1;align=center;verticalAlign=middle;whiteSpace=wrap;rounded=0;" parent="1" vertex="1">
          <mxGeometry x="650" y="-15" width="60" height="25" as="geometry" />
        </mxCell>
        <mxCell id="YoX6VDQHQ6fOQGBJkhDj-6" value="" style="endArrow=none;html=1;rounded=0;" parent="1" edge="1">
          <mxGeometry width="50" height="50" relative="1" as="geometry">
            <mxPoint x="-10" y="80" as="sourcePoint" />
            <mxPoint x="850" y="80" as="targetPoint" />
          </mxGeometry>
        </mxCell>
        <mxCell id="YoX6VDQHQ6fOQGBJkhDj-5" value="SIGN IN" style="text;html=1;align=center;verticalAlign=middle;whiteSpace=wrap;rounded=0;" parent="1" vertex="1">
          <mxGeometry x="670" y="-15" width="180" height="90" as="geometry" />
        </mxCell>
        <mxCell id="YoX6VDQHQ6fOQGBJkhDj-7" value="" style="rounded=1;whiteSpace=wrap;html=1;" parent="1" vertex="1">
          <mxGeometry x="-10" y="130" width="500" height="190" as="geometry" />
        </mxCell>
        <mxCell id="YoX6VDQHQ6fOQGBJkhDj-8" value="PROJECT 1" style="text;html=1;align=center;verticalAlign=middle;whiteSpace=wrap;rounded=0;" parent="1" vertex="1">
          <mxGeometry x="20" y="170" width="440" height="130" as="geometry" />
        </mxCell>
        <mxCell id="YoX6VDQHQ6fOQGBJkhDj-9" value="view more" style="text;html=1;align=center;verticalAlign=middle;whiteSpace=wrap;rounded=0;" parent="1" vertex="1">
          <mxGeometry x="400" y="270" width="60" height="30" as="geometry" />
        </mxCell>
        <mxCell id="YoX6VDQHQ6fOQGBJkhDj-10" value="" style="rounded=1;whiteSpace=wrap;html=1;" parent="1" vertex="1">
          <mxGeometry x="-10" y="370" width="500" height="200" as="geometry" />
        </mxCell>
        <mxCell id="YoX6VDQHQ6fOQGBJkhDj-11" value="PROJECT 2" style="text;html=1;align=center;verticalAlign=middle;whiteSpace=wrap;rounded=0;" parent="1" vertex="1">
          <mxGeometry x="80" y="410" width="350" height="120" as="geometry" />
        </mxCell>
        <mxCell id="YoX6VDQHQ6fOQGBJkhDj-14" value="" style="rounded=0;whiteSpace=wrap;html=1;" parent="1" vertex="1">
          <mxGeometry x="560" y="15" width="120" height="60" as="geometry" />
        </mxCell>
        <mxCell id="YoX6VDQHQ6fOQGBJkhDj-15" value="FILTER PROJECTS" style="text;html=1;align=center;verticalAlign=middle;whiteSpace=wrap;rounded=0;" parent="1" vertex="1">
          <mxGeometry x="590" y="30" width="60" height="30" as="geometry" />
        </mxCell>
        <mxCell id="YoX6VDQHQ6fOQGBJkhDj-16" value="" style="swimlane;fontStyle=0;childLayout=stackLayout;horizontal=1;startSize=30;horizontalStack=0;resizeParent=1;resizeParentMax=0;resizeLast=0;collapsible=1;marginBottom=0;whiteSpace=wrap;html=1;" parent="1" vertex="1">
          <mxGeometry x="560" y="80" width="120" height="120" as="geometry" />
        </mxCell>
        <mxCell id="YoX6VDQHQ6fOQGBJkhDj-17" value="CIE" style="text;strokeColor=none;fillColor=none;align=left;verticalAlign=middle;spacingLeft=4;spacingRight=4;overflow=hidden;points=[[0,0.5],[1,0.5]];portConstraint=eastwest;rotatable=0;whiteSpace=wrap;html=1;" parent="YoX6VDQHQ6fOQGBJkhDj-16" vertex="1">
          <mxGeometry y="30" width="120" height="30" as="geometry" />
        </mxCell>
        <mxCell id="YoX6VDQHQ6fOQGBJkhDj-18" value="Nano&amp;nbsp;" style="text;strokeColor=none;fillColor=none;align=left;verticalAlign=middle;spacingLeft=4;spacingRight=4;overflow=hidden;points=[[0,0.5],[1,0.5]];portConstraint=eastwest;rotatable=0;whiteSpace=wrap;html=1;" parent="YoX6VDQHQ6fOQGBJkhDj-16" vertex="1">
          <mxGeometry y="60" width="120" height="30" as="geometry" />
        </mxCell>
        <mxCell id="YoX6VDQHQ6fOQGBJkhDj-19" value="Renew" style="text;strokeColor=none;fillColor=none;align=left;verticalAlign=middle;spacingLeft=4;spacingRight=4;overflow=hidden;points=[[0,0.5],[1,0.5]];portConstraint=eastwest;rotatable=0;whiteSpace=wrap;html=1;" parent="YoX6VDQHQ6fOQGBJkhDj-16" vertex="1">
          <mxGeometry y="90" width="120" height="30" as="geometry" />
        </mxCell>
        <mxCell id="YoX6VDQHQ6fOQGBJkhDj-27" style="edgeStyle=orthogonalEdgeStyle;rounded=0;orthogonalLoop=1;jettySize=auto;html=1;exitX=0;exitY=0.5;exitDx=0;exitDy=0;" parent="1" source="YoX6VDQHQ6fOQGBJkhDj-20" edge="1">
          <mxGeometry relative="1" as="geometry">
            <mxPoint x="540" y="595" as="targetPoint" />
          </mxGeometry>
        </mxCell>
        <mxCell id="YoX6VDQHQ6fOQGBJkhDj-20" value="" style="rounded=0;whiteSpace=wrap;html=1;" parent="1" vertex="1">
          <mxGeometry x="570" y="580" width="160" height="30" as="geometry" />
        </mxCell>
        <mxCell id="YoX6VDQHQ6fOQGBJkhDj-22" value="" style="endArrow=none;html=1;rounded=0;exitX=0.868;exitY=1.047;exitDx=0;exitDy=0;exitPerimeter=0;entryX=0.838;entryY=0.007;entryDx=0;entryDy=0;entryPerimeter=0;" parent="1" source="YoX6VDQHQ6fOQGBJkhDj-20" target="YoX6VDQHQ6fOQGBJkhDj-20" edge="1">
          <mxGeometry width="50" height="50" relative="1" as="geometry">
            <mxPoint x="370" y="620" as="sourcePoint" />
            <mxPoint x="420" y="570" as="targetPoint" />
          </mxGeometry>
        </mxCell>
        <mxCell id="YoX6VDQHQ6fOQGBJkhDj-23" value="" style="endArrow=none;html=1;rounded=0;exitX=0.613;exitY=1.073;exitDx=0;exitDy=0;exitPerimeter=0;entryX=0.618;entryY=0.167;entryDx=0;entryDy=0;entryPerimeter=0;" parent="1" source="YoX6VDQHQ6fOQGBJkhDj-20" target="YoX6VDQHQ6fOQGBJkhDj-20" edge="1">
          <mxGeometry width="50" height="50" relative="1" as="geometry">
            <mxPoint x="670" y="620" as="sourcePoint" />
            <mxPoint x="420" y="570" as="targetPoint" />
          </mxGeometry>
        </mxCell>
        <mxCell id="YoX6VDQHQ6fOQGBJkhDj-24" value="" style="endArrow=none;html=1;rounded=0;exitX=0.358;exitY=1.047;exitDx=0;exitDy=0;exitPerimeter=0;entryX=0.363;entryY=0.087;entryDx=0;entryDy=0;entryPerimeter=0;" parent="1" source="YoX6VDQHQ6fOQGBJkhDj-20" target="YoX6VDQHQ6fOQGBJkhDj-20" edge="1">
          <mxGeometry width="50" height="50" relative="1" as="geometry">
            <mxPoint x="370" y="620" as="sourcePoint" />
            <mxPoint x="420" y="570" as="targetPoint" />
          </mxGeometry>
        </mxCell>
        <mxCell id="YoX6VDQHQ6fOQGBJkhDj-25" value="1" style="text;html=1;align=center;verticalAlign=middle;whiteSpace=wrap;rounded=0;" parent="1" vertex="1">
          <mxGeometry x="560" y="581.41" width="60" height="30" as="geometry" />
        </mxCell>
        <mxCell id="YoX6VDQHQ6fOQGBJkhDj-29" value="2" style="text;html=1;align=center;verticalAlign=middle;whiteSpace=wrap;rounded=0;" parent="1" vertex="1">
          <mxGeometry x="610" y="581.41" width="60" height="30" as="geometry" />
        </mxCell>
        <mxCell id="YoX6VDQHQ6fOQGBJkhDj-30" value="3" style="text;html=1;align=center;verticalAlign=middle;whiteSpace=wrap;rounded=0;" parent="1" vertex="1">
          <mxGeometry x="650" y="580" width="60" height="30" as="geometry" />
        </mxCell>
        <mxCell id="YoX6VDQHQ6fOQGBJkhDj-31" value="...." style="text;html=1;align=center;verticalAlign=middle;whiteSpace=wrap;rounded=0;" parent="1" vertex="1">
          <mxGeometry x="690" y="581.41" width="60" height="30" as="geometry" />
        </mxCell>
        <mxCell id="YoX6VDQHQ6fOQGBJkhDj-33" value="ZC projects" style="text;html=1;align=center;verticalAlign=middle;whiteSpace=wrap;rounded=0;fontSize=22;" parent="1" vertex="1">
          <mxGeometry x="20" width="420" height="80" as="geometry" />
        </mxCell>
        <mxCell id="YoX6VDQHQ6fOQGBJkhDj-34" value="view more" style="text;html=1;align=center;verticalAlign=middle;whiteSpace=wrap;rounded=0;" parent="1" vertex="1">
          <mxGeometry x="410" y="520" width="60" height="30" as="geometry" />
        </mxCell>
        <mxCell id="2TW4DQ_lYS_oqKU76VWf-1" value="" style="curved=1;endArrow=classic;html=1;rounded=0;" edge="1" parent="1" source="YoX6VDQHQ6fOQGBJkhDj-5">
          <mxGeometry width="50" height="50" relative="1" as="geometry">
            <mxPoint x="840" y="270" as="sourcePoint" />
            <mxPoint x="1240" y="110" as="targetPoint" />
            <Array as="points">
              <mxPoint x="890" y="270" />
              <mxPoint x="850" y="-60" />
              <mxPoint x="950" y="-100" />
              <mxPoint x="1050" y="10" />
              <mxPoint x="840" y="220" />
            </Array>
          </mxGeometry>
        </mxCell>
        <mxCell id="2TW4DQ_lYS_oqKU76VWf-2" value="" style="endArrow=none;html=1;rounded=0;" edge="1" parent="1">
          <mxGeometry width="50" height="50" relative="1" as="geometry">
            <mxPoint x="1880" y="870" as="sourcePoint" />
            <mxPoint x="1880" y="-10" as="targetPoint" />
          </mxGeometry>
        </mxCell>
        <mxCell id="2TW4DQ_lYS_oqKU76VWf-3" value="" style="endArrow=none;html=1;rounded=0;" edge="1" parent="1">
          <mxGeometry width="50" height="50" relative="1" as="geometry">
            <mxPoint x="1280" y="90" as="sourcePoint" />
            <mxPoint x="2220" y="90" as="targetPoint" />
          </mxGeometry>
        </mxCell>
        <mxCell id="2TW4DQ_lYS_oqKU76VWf-4" value="" style="whiteSpace=wrap;html=1;aspect=fixed;" vertex="1" parent="1">
          <mxGeometry x="1820" y="160" width="10" height="10" as="geometry" />
        </mxCell>
        <mxCell id="2TW4DQ_lYS_oqKU76VWf-5" value="" style="rounded=0;whiteSpace=wrap;html=1;" vertex="1" parent="1">
          <mxGeometry x="1410" y="210" width="420" height="110" as="geometry" />
        </mxCell>
        <mxCell id="2TW4DQ_lYS_oqKU76VWf-6" value="" style="rounded=0;whiteSpace=wrap;html=1;" vertex="1" parent="1">
          <mxGeometry x="1410" y="400" width="420" height="120" as="geometry" />
        </mxCell>
        <mxCell id="2TW4DQ_lYS_oqKU76VWf-7" value="username" style="text;html=1;align=center;verticalAlign=middle;whiteSpace=wrap;rounded=0;fontSize=29;" vertex="1" parent="1">
          <mxGeometry x="1470" y="220" width="330" height="90" as="geometry" />
        </mxCell>
        <mxCell id="2TW4DQ_lYS_oqKU76VWf-8" value="password" style="text;html=1;align=center;verticalAlign=middle;whiteSpace=wrap;rounded=0;fontSize=22;" vertex="1" parent="1">
          <mxGeometry x="1490" y="410" width="200" height="100" as="geometry" />
        </mxCell>
        <mxCell id="2TW4DQ_lYS_oqKU76VWf-9" value="" style="rounded=0;whiteSpace=wrap;html=1;" vertex="1" parent="1">
          <mxGeometry x="1470" y="550" width="170" height="50" as="geometry" />
        </mxCell>
        <mxCell id="2TW4DQ_lYS_oqKU76VWf-10" value="&lt;font style=&quot;font-size: 20px;&quot;&gt;make an account&lt;/font&gt;" style="text;html=1;align=center;verticalAlign=middle;whiteSpace=wrap;rounded=0;fontSize=32;" vertex="1" parent="1">
          <mxGeometry x="1432.5" y="555" width="245" height="40" as="geometry" />
        </mxCell>
        <mxCell id="2TW4DQ_lYS_oqKU76VWf-11" value="" style="rounded=0;whiteSpace=wrap;html=1;" vertex="1" parent="1">
          <mxGeometry x="1720" y="570" width="120" height="60" as="geometry" />
        </mxCell>
        <mxCell id="2TW4DQ_lYS_oqKU76VWf-12" value="sign in" style="text;html=1;align=center;verticalAlign=middle;whiteSpace=wrap;rounded=0;fontSize=21;" vertex="1" parent="1">
          <mxGeometry x="1730" y="585" width="90" height="35" as="geometry" />
        </mxCell>
      </root>
    </mxGraphModel>
  </diagram>
</mxfile>
